<?xml version="1.0" encoding="UTF-8" standalone="no"?>
<svg
   xmlns:dc="http://purl.org/dc/elements/1.1/"
   xmlns:cc="http://creativecommons.org/ns#"
   xmlns:rdf="http://www.w3.org/1999/02/22-rdf-syntax-ns#"
   xmlns:svg="http://www.w3.org/2000/svg"
   xmlns="http://www.w3.org/2000/svg"
   xmlns:sodipodi="http://sodipodi.sourceforge.net/DTD/sodipodi-0.dtd"
   xmlns:inkscape="http://www.inkscape.org/namespaces/inkscape"
   sodipodi:docname="tampon.svg"
   inkscape:version="1.0.1 (3bc2e813f5, 2020-09-07)"
   id="svg8"
   version="1.1"
   viewBox="0 0 36.221611 36.221611"
   height="36.221611mm"
   width="36.221611mm">
  <defs
     id="defs2" />
  <sodipodi:namedview
     inkscape:document-rotation="0"
     inkscape:guide-bbox="true"
     showguides="true"
     inkscape:window-maximized="1"
     inkscape:window-y="-8"
     inkscape:window-x="-8"
     inkscape:window-height="1057"
     inkscape:window-width="1920"
     showgrid="false"
     inkscape:current-layer="layer1"
     inkscape:document-units="mm"
     inkscape:cy="269.7981"
     inkscape:cx="129.94098"
     inkscape:zoom="0.7"
     inkscape:pageshadow="2"
     inkscape:pageopacity="0.0"
     borderopacity="1.0"
     bordercolor="#666666"
     pagecolor="#ffffff"
     id="base"
     fit-margin-top="0"
     fit-margin-left="0"
     fit-margin-right="0"
     fit-margin-bottom="0">
    <sodipodi:guide
       inkscape:locked="false"
       id="guide947"
       orientation="1,0"
       position="165.47003,-76.669047" />
  </sodipodi:namedview>
  <metadata
     id="metadata5">
    <rdf:RDF>
      <cc:Work
         rdf:about="">
        <dc:format>image/svg+xml</dc:format>
        <dc:type
           rdf:resource="http://purl.org/dc/dcmitype/StillImage" />
        <dc:title></dc:title>
      </cc:Work>
    </rdf:RDF>
  </metadata>
  <g
     id="layer1"
     inkscape:groupmode="layer"
     inkscape:label="Layer 1"
     transform="translate(-76.43473,-100.95458)">
    <g
       id="text891"
       style="font-style:normal;font-weight:normal;font-size:10.5833px;line-height:1.25;font-family:sans-serif;letter-spacing:0px;word-spacing:0px;fill:#000000;fill-opacity:1;stroke:none;stroke-width:0.264583"
       inkscape:export-xdpi="600"
       inkscape:export-ydpi="600" />
    <g
       transform="matrix(0.26458334,0,0,0.26458334,12.09524,3.4017859)"
       id="flowRoot894"
       style="font-style:normal;font-weight:normal;font-size:40px;line-height:1.25;font-family:sans-serif;letter-spacing:0px;word-spacing:0px;fill:#000000;fill-opacity:1;stroke:none"
       inkscape:export-xdpi="600"
       inkscape:export-ydpi="600" />
    <g
       aria-label="©"
       id="text913-9-2"
       style="font-style:normal;font-weight:normal;font-size:51.3054px;line-height:1.25;font-family:sans-serif;letter-spacing:0px;word-spacing:0px;fill:#000000;fill-opacity:1;stroke:none;stroke-width:1.28264"
       inkscape:export-xdpi="600"
       inkscape:export-ydpi="600">
      <path
         d="m 94.494231,137.17619 q -5.02793,0 -9.183667,-2.41135 -4.104432,-2.41135 -6.515786,-6.56709 -2.360048,-4.15574 -2.360048,-9.13236 0,-4.97663 2.360048,-9.13236 2.411354,-4.15574 6.567091,-6.5671 4.155738,-2.41135 9.234972,-2.41135 5.079235,0 9.183669,2.36005 4.15574,2.36005 6.51578,6.51579 2.36005,4.10443 2.36005,9.13236 0,5.02793 -2.41135,9.23497 -2.41136,4.15574 -6.56709,6.56709 -4.15574,2.41135 -9.183669,2.41135 z m 0,-2.82179 q 4.258348,0 7.695809,-2.05222 3.48877,-2.05222 5.48968,-5.54098 2.00091,-3.54007 2.00091,-7.79842 0,-4.25835 -1.94961,-7.69581 -1.9496,-3.48877 -5.38706,-5.48968 -3.437465,-2.00091 -7.747119,-2.00091 -4.309653,0 -7.798421,2.05221 -3.488767,2.00091 -5.489677,5.48968 -1.949606,3.48877 -1.949606,7.74712 0,4.25835 1.949606,7.74711 2.00091,3.48877 5.438372,5.54099 3.488767,2.00091 7.747116,2.00091 z m 0.564359,-4.82271 q -3.129629,0 -5.592289,-1.33394 -2.462659,-1.33394 -3.847905,-3.69399 -1.385246,-2.41135 -1.385246,-5.43837 0,-3.02702 1.385246,-5.38707 1.385246,-2.41135 3.847905,-3.74529 2.46266,-1.33394 5.592289,-1.33394 2.873102,0 5.07923,1.23133 2.25744,1.18002 3.48877,3.23224 l -3.745292,2.46265 q -1.590468,-2.56527 -4.874013,-2.56527 -2.513965,0 -4.207043,1.69308 -1.641773,1.64178 -1.641773,4.41227 0,2.77049 1.641773,4.46357 1.693078,1.64177 4.207043,1.64177 3.283545,0 4.874013,-2.56527 l 3.745292,2.36005 q -1.23133,2.15483 -3.48877,3.38616 -2.206128,1.18002 -5.07923,1.18002 z"
         style="font-style:normal;font-variant:normal;font-weight:600;font-stretch:normal;font-family:Montserrat;-inkscape-font-specification:'Montserrat Semi-Bold';stroke-width:1.28264"
         id="path948" />
    </g>
    <g
       id="text913-4-0"
       style="font-style:normal;font-weight:normal;font-size:20.6414px;line-height:1.25;font-family:sans-serif;letter-spacing:0px;word-spacing:0px;fill:#000000;fill-opacity:1;stroke:none;stroke-width:0.516037"
       inkscape:export-xdpi="600"
       inkscape:export-ydpi="600" />
    <g
       id="text913-9-6"
       style="font-style:normal;font-weight:normal;font-size:20.6414px;line-height:1.25;font-family:sans-serif;letter-spacing:0px;word-spacing:0px;fill:#000000;fill-opacity:1;stroke:none;stroke-width:0.516037"
       inkscape:export-xdpi="600"
       inkscape:export-ydpi="600" />
    <path
       id="path921-9-0"
       style="fill:#000000;fill-opacity:1;stroke:none;stroke-width:0.297078px;stroke-linecap:butt;stroke-linejoin:miter;stroke-opacity:1"
       d="m 96.028603,118.09258 1.90784,5.43731 h -5.72347 l 1.90785,-5.43731 z m -0.95389,1.56571 a 2.5237353,2.5237353 0 0 1 -2.52376,-2.52373 2.5237353,2.5237353 0 0 1 2.52376,-2.52373 2.5237353,2.5237353 0 0 1 2.52373,2.52373 2.5237353,2.5237353 0 0 1 -2.52373,2.52373 z"
       inkscape:connector-curvature="0"
       inkscape:export-xdpi="600"
       inkscape:export-ydpi="600" />
  </g>
</svg>
